# xmcd
#
# Track frame offsets:
#	182
#	13237
#	23632
#	36252
#	49765
#	61457
#	75435
#	88180
#	101390
#	113642
#	126660
#	136192
#	148425
#	162217
#	172012
#	184250
#	198292
#	216080
#	228582
#	240630
#
# Disc length: 3362
#
# Revision: 5
# Processed by: cddbd v1.5.1PL0 Copyright (c) Steve Scherf et al.
# Submitted via: audiograbber 1.82.00
# Normalized: r4:DSETVAR2
#
DISCID=1d0d2014
DTITLE=Various Artist - Blues Gems - Vol. 3
DYEAR=1989
DGENRE=Blues
TTITLE0=Jimmy Rogers - Walkin' By Myself
TTITLE1=Guitar Junior - The Crawl
TTITLE2=Bo Diddley - You Don't Love Me (You Don't Care)
TTITLE3=Junior Parker - Fussin' and Fightin'
TTITLE4=Hot Shot Love - Harmonica Jam
TTITLE5=Albert King - Searchin' For A Woman
TTITLE6=Muddy Waters - (I'm Your) Hoochie Coochie Man
TTITLE7=Buddy Guy - Let Me Love You Baby
TTITLE8=Big Willie Mabon - I'm Tired
TTITLE9=Sonny Terry - Doggin' My Heart Around
TTITLE10=Magic Sam - Love Me With A Feeling
TTITLE11=Little Walter - Last Night
TTITLE12=Otis Rush - I Can't Quit You Baby
TTITLE13=Sonny Boy Williamson - Too Close Together
TTITLE14=J.B. Lenoir - When I'm Drinkin'
TTITLE15=Howlin' Wolf - Smokestack Lightnin'
TTITLE16=Little Milton - Feel So Bad
TTITLE17=Elmore James - Cry For Me Baby
TTITLE18=Jimmy Reed - Big Boss Man
TTITLE19=Washboard Sam - Never, Never, Never
EXTD=Green Line - CD5VIN04
EXTT0=
EXTT1=
EXTT2=
EXTT3=
EXTT4=
EXTT5=
EXTT6=
EXTT7=
EXTT8=
EXTT9=
EXTT10=
EXTT11=
EXTT12=
EXTT13=
EXTT14=
EXTT15=
EXTT16=
EXTT17=
EXTT18=
EXTT19=
PLAYORDER=
